<svg xmlns="http://www.w3.org/2000/svg" width="128" height="128" viewBox="0 0 128 128">
  <defs>
    <linearGradient id="bg" x1="0" y1="0" x2="1" y2="1">
      <stop offset="0" stop-color="#0b1220"/>
      <stop offset="1" stop-color="#111827"/>
    </linearGradient>
  </defs>
  <circle cx="64" cy="64" r="56" fill="url(#bg)"/>
  <!-- Minimal "raven" mark: head + beak + wing curve -->
  <path
    d="M86 44c-9-12-28-16-43-6c-11 7-17 19-15 32c2 12 11 23 24 28c13 5 27 2 36-7c-12 3-22-2-28-10c-7-10-4-24 7-31c6-4 14-5 19-6z"
    fill="#e5e7eb"/>
  <path
    d="M88 47c8 1 15 6 20 13c-9 2-18 2-26 0c2-6 4-10 6-13z"
    fill="#cbd5e1"/>
  <circle cx="63" cy="55" r="4" fill="#0b1220"/>
</svg>

