<svg xmlns="http://www.w3.org/2000/svg" viewBox="11.500 -83.660 92.477 99.847">
  <path d="M92.0721-10.0766C88.6391-22.6736 79.3487-37.7201 57.8544-37.7201C37.9492-37.7201 32.1379-53.8453 30.4444-63.1022L22.5698-62.4528C24.7851-48.9863 33.4375-29.8687 57.8544-29.8687C74.6862-29.8687 81.4486-17.9189 84.151-8.88211C80.1958-6.94526 77.5048-2.80455 77.5048 1.95092C77.5048 8.70113 82.9908 14.1872 89.741 14.1872C96.4913 14.1872 101.977 8.70113 101.977 1.95092C101.977-4.02227 97.709-8.96324 92.0721-10.0766ZM94.207 1.95092C94.207 4.37532 92.1654 6.41692 89.741 6.41692C87.3166 6.41692 85.275 4.37532 85.275 1.95092C85.275-0.473481 87.3166-2.51508 89.741-2.51508C92.2698-2.51508 94.207-0.496716 94.207 1.95092Z"/>
  <path d="M37.972-69.424C37.972-76.1742 32.486-81.6602 25.7358-81.6602C18.9856-81.6602 13.4996-76.1742 13.4996-69.424C13.4996-64.1002 16.9676-59.5188 21.8274-57.8371L21.8274-9.65913C16.9676-8.08185 13.4996-3.47721 13.4996 1.92768C13.4996 8.6779 18.9856 14.1639 25.7358 14.1639C32.5904 14.1639 38.0764 8.6779 38.0764 1.92768C38.0764-3.39608 34.6084-7.97749 29.7485-9.65913L29.7485-57.8371C34.6084-59.5188 38.0764-64.1002 37.972-69.424ZM22.083 1.24205C22.5245-0.740879 24.4617-2.03895 26.549-1.59749C28.6363-1.15602 29.9344 0.781217 29.4929 2.86851C29.0515 4.85145 27.0099 6.14952 24.9226 5.70805C22.9396 5.24335 21.6183 3.22499 22.083 1.24205ZM30.2018-69.5051C30.2018-67.0807 28.1602-65.0391 25.7358-65.0391C23.3114-65.0391 21.2698-66.9763 21.2698-69.5051C21.2698-71.9295 23.207-73.9711 25.7358-73.9711C28.2646-73.9711 30.3062-71.9295 30.2018-69.5051Z"/>
</svg>
