<svg xmlns="http://www.w3.org/2000/svg" viewBox="10.642 -56.214 84.526 42.694">
  <path d="M91.9498-37.9753C91.0684-38.8567 90.0594-39.2974 88.9461-39.2974L71.7296-39.2974C69.7116-47.8344 62.091-54.214 53.009-54.214C43.9269-54.214 36.3063-47.8344 34.2883-39.2974L17.0718-39.2974C15.8541-39.2974 14.8451-38.8567 13.9637-37.9753C13.0823-37.0939 12.6417-36.0849 12.6417-34.8672C12.6417-33.6495 13.0823-32.6405 13.9637-31.7591C14.8451-30.8777 15.8541-30.437 17.0718-30.437L34.184-30.437C36.202-21.9 43.8225-15.5204 52.9046-15.5204C61.9866-15.5204 69.6072-21.9 71.6252-30.437L88.8417-30.437C89.9551-30.437 91.0684-30.8777 91.8454-31.7591C92.6225-32.6405 93.1675-33.6495 93.1675-34.8672C93.1675-36.0849 92.8544-37.0939 91.9498-37.9753ZM53.0322-24.5316C47.2902-24.5316 42.6966-29.1252 42.6966-34.8672C42.6966-40.6092 47.2902-45.2028 53.0322-45.2028C58.7742-45.2028 63.3678-40.6092 63.3678-34.8672C63.3678-29.1252 58.7742-24.5316 53.0322-24.5316Z"/>
</svg>
