<svg xmlns="http://www.w3.org/2000/svg" viewBox="11.500 -83.660 92.477 99.847">
  <path d="M101.977-69.424C101.977-76.1742 96.4913-81.6602 89.741-81.6602C82.9908-81.6602 77.5048-76.1742 77.5048-69.424C77.5048-64.6685 80.1958-60.5278 84.151-58.5909C81.4486-49.5542 74.6862-37.6043 57.8544-37.6043C33.4375-37.6043 24.7851-18.4868 22.5698-5.02022L30.4444-4.3708C32.1379-13.6277 37.9492-29.7529 57.8544-29.7529C79.3487-29.7529 88.6391-44.7995 92.0721-57.3964C97.709-58.5098 101.977-63.4508 101.977-69.424ZM89.741-64.958C87.3166-64.958 85.275-66.9996 85.275-69.424C85.275-71.8484 87.3166-73.89 89.741-73.89C92.1654-73.89 94.207-71.8484 94.207-69.424C94.207-66.9763 92.2698-64.958 89.741-64.958Z"/>
  <path d="M29.7485-9.6359L29.7485-57.8139C34.6084-59.4955 38.0764-64.0769 38.0764-69.4007C38.0764-76.1509 32.5904-81.637 25.7358-81.637C18.9856-81.637 13.4996-76.1509 13.4996-69.4007C13.4996-63.9958 16.9676-59.3912 21.8274-57.8139L21.8274-9.6359C16.9676-7.95425 13.4996-3.37285 13.4996 1.95092C13.4996 8.70113 18.9856 14.1872 25.7358 14.1872C32.486 14.1872 37.972 8.70113 37.972 1.95092C38.0764-3.37285 34.6084-7.95425 29.7485-9.6359ZM24.9226-73.1811C27.0099-73.6226 29.0515-72.3245 29.4929-70.3415C29.9344-68.2542 28.6363-66.317 26.549-65.8755C24.4617-65.4341 22.5245-66.7322 22.083-68.7151C21.6183-70.698 22.9396-72.7164 24.9226-73.1811ZM25.7358 6.49805C23.207 6.49805 21.2698 4.45645 21.2698 2.03205C21.2698-0.496716 23.3114-2.43395 25.7358-2.43395C28.1602-2.43395 30.2018-0.392352 30.2018 2.03205C30.3062 4.45645 28.2646 6.49805 25.7358 6.49805Z"/>
</svg>
